<?xml version="1.0" encoding="utf-8"?>
<!-- Generator: Adobe Illustrator 19.0.0, SVG Export Plug-In . SVG Version: 6.00 Build 0)  -->
<!DOCTYPE svg PUBLIC "-//W3C//DTD SVG 1.1//EN" "http://www.w3.org/Graphics/SVG/1.1/DTD/svg11.dtd" [
	<!ENTITY ns_extend "http://ns.adobe.com/Extensibility/1.0/">
	<!ENTITY ns_ai "http://ns.adobe.com/AdobeIllustrator/10.0/">
	<!ENTITY ns_graphs "http://ns.adobe.com/Graphs/1.0/">
	<!ENTITY ns_vars "http://ns.adobe.com/Variables/1.0/">
	<!ENTITY ns_imrep "http://ns.adobe.com/ImageReplacement/1.0/">
	<!ENTITY ns_sfw "http://ns.adobe.com/SaveForWeb/1.0/">
	<!ENTITY ns_custom "http://ns.adobe.com/GenericCustomNamespace/1.0/">
	<!ENTITY ns_adobe_xpath "http://ns.adobe.com/XPath/1.0/">
]>
<svg version="1.1" id="Layer_1" xmlns:x="&ns_extend;" xmlns:i="&ns_ai;" xmlns:graph="&ns_graphs;"
	 xmlns="http://www.w3.org/2000/svg" xmlns:xlink="http://www.w3.org/1999/xlink" x="0px" y="0px" width="705.4px" height="625.6px"
	 viewBox="0 0 705.4 625.6" style="enable-background:new 0 0 705.4 625.6;" xml:space="preserve">
<style type="text/css">
	.st0{opacity:0.3;}
	.st1{fill:none;stroke:#000000;stroke-width:3;stroke-linecap:square;stroke-linejoin:round;stroke-miterlimit:10;}
	.st2{fill:none;stroke:#000000;stroke-width:2;stroke-linecap:square;stroke-linejoin:round;stroke-miterlimit:10;}
	.st3{fill:none;stroke:#000000;stroke-width:2;stroke-linecap:round;stroke-linejoin:round;stroke-miterlimit:10;}
	.st4{fill:none;stroke:#000000;stroke-width:3;stroke-linecap:square;stroke-miterlimit:10;}
	.st5{fill:#FFFDFA;}
	.st6{fill:#327E9C;}
	.st7{fill:none;stroke:#FFFDFA;stroke-width:3;stroke-miterlimit:10;}
	.st8{fill:#EAE4DC;}
	.st9{opacity:0.1;}
	.st10{fill:#47B4E0;}
	.st11{fill:none;stroke:#FFFDFA;stroke-width:2;stroke-linecap:square;stroke-linejoin:round;stroke-miterlimit:10;}
	.st12{fill:#47B4E0;stroke:#FFFDFA;stroke-width:2;stroke-linecap:square;stroke-linejoin:round;stroke-miterlimit:10;}
	.st13{fill:#47B4E0;stroke:#FFFDFA;stroke-width:2;stroke-linecap:round;stroke-miterlimit:10;}
	.st14{fill:#47B4E0;stroke:#FFFDFA;stroke-width:2;stroke-linejoin:round;stroke-miterlimit:10;}
	.st15{fill:none;stroke:#FFFDFA;stroke-width:3;stroke-linejoin:round;stroke-miterlimit:10;}
	.st16{fill:none;stroke:#FFFDFA;stroke-width:2;stroke-linejoin:round;stroke-miterlimit:10;}
	.st17{fill:none;stroke:#FFFDFA;stroke-width:2;stroke-linecap:round;stroke-linejoin:round;stroke-miterlimit:10;}
	.st18{fill:none;stroke:#47B4E0;stroke-width:2;stroke-linecap:square;stroke-linejoin:round;stroke-miterlimit:10;}
	.st19{fill:none;stroke:#FFFDFA;stroke-width:3;stroke-linecap:square;stroke-linejoin:round;stroke-miterlimit:10;}
	.st20{fill:#FFFFFF;}
	.st21{font-family:'ProximaNova-Extrabld';}
	.st22{font-size:22.9025px;}
	.st23{fill:none;stroke:#327E9C;stroke-width:2;stroke-linecap:round;stroke-linejoin:round;stroke-miterlimit:10;}
</style>
<metadata>
	<sfw  xmlns="&ns_sfw;">
		<slices></slices>
		<sliceSourceBounds  height="603.3" width="666" bottomLeftOrigin="true" y="793.5" x="-101.5"></sliceSourceBounds>
	</sfw>
</metadata>
<g id="XMLID_291_" class="st0">
	<g id="XMLID_432_">
		<path id="XMLID_444_" class="st1" d="M199.6,143"/>
		<path id="XMLID_443_" class="st1" d="M199.6,103.5"/>
		<g id="XMLID_433_">
			<path id="XMLID_442_" class="st1" d="M291.4,143"/>
			<line id="XMLID_441_" class="st1" x1="199.9" y1="102.8" x2="290.9" y2="102.8"/>
			<line id="XMLID_440_" class="st1" x1="199.9" y1="143.8" x2="290.9" y2="143.8"/>
			<line id="XMLID_439_" class="st1" x1="244.4" y1="104.3" x2="244.4" y2="143.3"/>
			<line id="XMLID_438_" class="st2" x1="245.9" y1="143" x2="292.3" y2="102.9"/>
			<line id="XMLID_437_" class="st2" x1="199.6" y1="143" x2="245.9" y2="102.9"/>
			<line id="XMLID_436_" class="st2" x1="245.9" y1="143" x2="199.6" y2="102.9"/>
			<line id="XMLID_435_" class="st2" x1="292.3" y1="143" x2="245.9" y2="102.9"/>
			<line id="XMLID_434_" class="st1" x1="291.4" y1="104.3" x2="291.4" y2="259.3"/>
		</g>
	</g>
	<line id="XMLID_431_" class="st1" x1="206.4" y1="439.3" x2="206.4" y2="473.3"/>
	<line id="XMLID_430_" class="st1" x1="369.4" y1="79.3" x2="369.4" y2="15.3"/>
	<line id="XMLID_429_" class="st1" x1="336.4" y1="79.3" x2="336.4" y2="14.3"/>
	<line id="XMLID_428_" class="st2" x1="367.9" y1="79.6" x2="336.3" y2="47.1"/>
	<line id="XMLID_427_" class="st2" x1="336.3" y1="79.6" x2="367.9" y2="47.1"/>
	<line id="XMLID_426_" class="st2" x1="367.9" y1="47.3" x2="336.3" y2="14.9"/>
	<line id="XMLID_425_" class="st2" x1="336.3" y1="47.3" x2="367.9" y2="14.9"/>
	<line id="XMLID_424_" class="st2" x1="368.9" y1="48.3" x2="335.9" y2="48.3"/>
	<line id="XMLID_423_" class="st1" x1="582.4" y1="293.3" x2="582.4" y2="144.3"/>
	<line id="XMLID_422_" class="st2" x1="549.9" y1="293.3" x2="549.9" y2="187.3"/>
	<line id="XMLID_421_" class="st2" x1="581.6" y1="261.1" x2="550.6" y2="229.2"/>
	<line id="XMLID_420_" class="st2" x1="550" y1="261.1" x2="581.6" y2="228.6"/>
	<line id="XMLID_419_" class="st2" x1="581.9" y1="262.3" x2="430.9" y2="262.3"/>
	<line id="XMLID_418_" class="st2" x1="581.6" y1="228.3" x2="550" y2="195.8"/>
	<line id="XMLID_417_" class="st2" x1="550" y1="228.3" x2="581.6" y2="195.8"/>
	<line id="XMLID_416_" class="st2" x1="613.4" y1="227.5" x2="582.6" y2="195.8"/>
	<line id="XMLID_415_" class="st2" x1="582.6" y1="228.3" x2="613.4" y2="196.7"/>
	<line id="XMLID_414_" class="st2" x1="613.9" y1="196.3" x2="549.9" y2="196.3"/>
	<line id="XMLID_413_" class="st2" x1="613.9" y1="228.3" x2="549.9" y2="228.3"/>
	<line id="XMLID_412_" class="st2" x1="550.3" y1="228.3" x2="519.8" y2="197"/>
	<line id="XMLID_411_" class="st2" x1="519.8" y1="227.2" x2="550.3" y2="195.8"/>
	<line id="XMLID_410_" class="st2" x1="550.9" y1="196.3" x2="485.9" y2="196.3"/>
	<line id="XMLID_409_" class="st2" x1="550.9" y1="228.3" x2="485.9" y2="228.3"/>
	<line id="XMLID_408_" class="st2" x1="485.9" y1="126.3" x2="485.9" y2="277.3"/>
	<line id="XMLID_407_" class="st2" x1="517.9" y1="196.3" x2="517.9" y2="227.3"/>
	<line id="XMLID_406_" class="st2" x1="516.6" y1="227.2" x2="486.1" y2="195.8"/>
	<line id="XMLID_405_" class="st2" x1="486.1" y1="228.3" x2="516.6" y2="197"/>
	<path id="XMLID_404_" class="st2" d="M542.9,75.6"/>
	<line id="XMLID_403_" class="st2" x1="542.9" y1="14.3" x2="542.9" y2="76.3"/>
	<line id="XMLID_402_" class="st2" x1="335.9" y1="14.3" x2="588.9" y2="14.3"/>
	<path id="XMLID_401_" class="st1" d="M206.6,439.2"/>
	<path id="XMLID_400_" class="st1" d="M159.6,363.1"/>
	<line id="XMLID_399_" class="st1" x1="120.4" y1="436.3" x2="120.4" y2="366.3"/>
	<line id="XMLID_398_" class="st1" x1="160.4" y1="368.3" x2="160.4" y2="436.3"/>
	<line id="XMLID_397_" class="st2" x1="121.3" y1="407.3" x2="159.4" y2="437.5"/>
	<line id="XMLID_396_" class="st2" x1="159.4" y1="407.3" x2="121.3" y2="437.5"/>
	<line id="XMLID_395_" class="st2" x1="119.9" y1="408.3" x2="159.9" y2="408.3"/>
	<line id="XMLID_394_" class="st2" x1="83.2" y1="408.4" x2="119.9" y2="437.5"/>
	<line id="XMLID_393_" class="st2" x1="119.9" y1="407.3" x2="81.8" y2="437.5"/>
	<line id="XMLID_392_" class="st2" x1="80.9" y1="408.3" x2="119.9" y2="408.3"/>
	<line id="XMLID_391_" class="st2" x1="42.2" y1="407.9" x2="81.6" y2="437.5"/>
	<line id="XMLID_390_" class="st2" x1="79.1" y1="409" x2="43.5" y2="437.5"/>
	<line id="XMLID_389_" class="st2" x1="42.2" y1="377.7" x2="81.6" y2="407.3"/>
	<line id="XMLID_388_" class="st2" x1="79.1" y1="378.8" x2="43.5" y2="407.3"/>
	<line id="XMLID_387_" class="st2" x1="41.9" y1="408.3" x2="81.9" y2="408.3"/>
	<line id="XMLID_386_" class="st2" x1="41.9" y1="378.3" x2="81.9" y2="378.3"/>
	<path id="XMLID_385_" class="st1" d="M121.2,290"/>
	<line id="XMLID_384_" class="st1" x1="158.4" y1="113.3" x2="158.4" y2="291.3"/>
	<path id="XMLID_383_" class="st1" d="M161.9,290"/>
	<line id="XMLID_382_" class="st1" x1="199.4" y1="48.3" x2="199.4" y2="251.3"/>
	<line id="XMLID_381_" class="st1" x1="159.9" y1="144.8" x2="501.9" y2="144.8"/>
	<line id="XMLID_380_" class="st1" x1="119.4" y1="289.3" x2="119.4" y2="253.3"/>
	<line id="XMLID_379_" class="st2" x1="196.8" y1="251.1" x2="160.3" y2="216.8"/>
	<line id="XMLID_378_" class="st2" x1="160.3" y1="252.8" x2="198.4" y2="216.8"/>
	<line id="XMLID_377_" class="st2" x1="220.9" y1="252.3" x2="118.9" y2="252.3"/>
	<line id="XMLID_376_" class="st2" x1="198.9" y1="217.3" x2="48.9" y2="217.3"/>
	<line id="XMLID_375_" class="st2" x1="198.4" y1="217.9" x2="160.3" y2="181.9"/>
	<line id="XMLID_374_" class="st2" x1="198.4" y1="180.8" x2="160.3" y2="144.7"/>
	<line id="XMLID_373_" class="st2" x1="160.3" y1="217.9" x2="198.4" y2="181.9"/>
	<line id="XMLID_372_" class="st2" x1="160.3" y1="180.8" x2="198.4" y2="144.7"/>
	<line id="XMLID_370_" class="st2" x1="198.9" y1="180.3" x2="159.9" y2="180.3"/>
	<line id="XMLID_368_" class="st2" x1="208.1" y1="472.6" x2="240.5" y2="441"/>
	<line id="XMLID_367_" class="st2" x1="241.6" y1="472.6" x2="274.1" y2="441"/>
	<line id="XMLID_366_" class="st2" x1="273.9" y1="472.6" x2="306.4" y2="441"/>
	<line id="XMLID_364_" class="st2" x1="208.1" y1="441" x2="240.5" y2="472.6"/>
	<line id="XMLID_363_" class="st2" x1="241.6" y1="441" x2="274.1" y2="472.6"/>
	<line id="XMLID_362_" class="st2" x1="273.9" y1="441" x2="306.4" y2="472.6"/>
	<line id="XMLID_361_" class="st2" x1="306.7" y1="472.6" x2="339.2" y2="441"/>
	<line id="XMLID_360_" class="st2" x1="306.7" y1="441" x2="339.2" y2="472.6"/>
	<line id="XMLID_359_" class="st2" x1="241.9" y1="440.3" x2="241.9" y2="473.3"/>
	<line id="XMLID_358_" class="st2" x1="81.7" y1="438.1" x2="81.8" y2="377.7"/>
	<line id="XMLID_357_" class="st2" x1="41.9" y1="474.3" x2="41.9" y2="378.3"/>
	<line id="XMLID_356_" class="st2" x1="272.9" y1="473.3" x2="272.9" y2="336.3"/>
	<line id="XMLID_355_" class="st2" x1="306.9" y1="473.3" x2="306.9" y2="440.3"/>
	<line id="XMLID_354_" class="st2" x1="339" y1="472.6" x2="371.5" y2="441"/>
	<line id="XMLID_353_" class="st2" x1="339" y1="441" x2="371.5" y2="472.6"/>
	<line id="XMLID_352_" class="st2" x1="371.8" y1="472.6" x2="404.2" y2="441"/>
	<line id="XMLID_351_" class="st2" x1="371.8" y1="441" x2="404.2" y2="472.6"/>
	<line id="XMLID_350_" class="st1" x1="337.4" y1="614.3" x2="337.4" y2="440.3"/>
	<line id="XMLID_349_" class="st2" x1="371.9" y1="601.3" x2="371.9" y2="440.3"/>
	<line id="XMLID_348_" class="st2" x1="404.3" y1="472.6" x2="436.8" y2="441"/>
	<line id="XMLID_347_" class="st2" x1="404.3" y1="441" x2="436.8" y2="472.6"/>
	<line id="XMLID_346_" class="st2" x1="436.6" y1="472.6" x2="469" y2="441"/>
	<line id="XMLID_345_" class="st2" x1="436.6" y1="441" x2="469" y2="472.6"/>
	<line id="XMLID_344_" class="st2" x1="469.3" y1="472.6" x2="501.8" y2="441"/>
	<line id="XMLID_343_" class="st2" x1="469.3" y1="441" x2="501.8" y2="472.6"/>
	<line id="XMLID_342_" class="st2" x1="435.9" y1="473.3" x2="435.9" y2="440.3"/>
	<line id="XMLID_341_" class="st2" x1="404.9" y1="473.3" x2="404.9" y2="440.3"/>
	<line id="XMLID_340_" class="st2" x1="469.9" y1="473.3" x2="469.9" y2="440.3"/>
	<line id="XMLID_339_" class="st2" x1="502.9" y1="473.3" x2="502.9" y2="440.3"/>
	<g id="XMLID_330_">
		<line id="XMLID_338_" class="st2" x1="533.7" y1="350.1" x2="533.7" y2="398"/>
		<line id="XMLID_337_" class="st2" x1="550.8" y1="361.7" x2="550.8" y2="397.3"/>
		<line id="XMLID_336_" class="st2" x1="550.8" y1="379.5" x2="533.7" y2="379.5"/>
		<line id="XMLID_335_" class="st2" x1="535.1" y1="398" x2="550.8" y2="379.5"/>
		<line id="XMLID_334_" class="st2" x1="583.7" y1="361.7" x2="583.7" y2="398"/>
		<line id="XMLID_333_" class="st2" x1="600.7" y1="350.1" x2="600.7" y2="397.3"/>
		<line id="XMLID_332_" class="st2" x1="600.7" y1="379.5" x2="583.7" y2="379.5"/>
		<line id="XMLID_331_" class="st2" x1="585" y1="398" x2="600.7" y2="379.5"/>
	</g>
	<g id="XMLID_325_">
		<polyline id="XMLID_329_" class="st3" points="539.1,83.3 520.3,102.1 532.9,114.7 		"/>
		<path id="XMLID_328_" class="st3" d="M551.2,116.5"/>
		<line id="XMLID_327_" class="st3" x1="547.5" y1="84" x2="565.6" y2="102.1"/>
		<circle id="XMLID_326_" class="st2" cx="542.9" cy="80.6" r="4.6"/>
	</g>
	<line id="XMLID_324_" class="st1" x1="182.8" y1="473.5" x2="502.3" y2="473.5"/>
	<path id="XMLID_323_" class="st1" d="M71.6,439.4"/>
	<line id="XMLID_1_" class="st4" x1="11.9" y1="438.8" x2="501.9" y2="438.8"/>
	<g id="XMLID_300_">
		<path id="XMLID_315_" class="st1" d="M435.5,438.1"/>
		<path id="XMLID_314_" class="st1" d="M435.5,398.6"/>
		<g id="XMLID_301_">
			<line id="XMLID_313_" class="st2" x1="503.7" y1="438.1" x2="313.4" y2="325.6"/>
			<path id="XMLID_312_" class="st1" d="M638.8,438.1"/>
			<line id="XMLID_311_" class="st1" x1="274.9" y1="398.8" x2="670.9" y2="398.8"/>
			<line id="XMLID_310_" class="st1" x1="435.9" y1="438.8" x2="670.9" y2="438.8"/>
			<line id="XMLID_309_" class="st1" x1="502.4" y1="399.3" x2="502.4" y2="438.3"/>
			<line id="XMLID_308_" class="st2" x1="503.7" y1="438.1" x2="572" y2="398"/>
			<line id="XMLID_307_" class="st2" x1="435.4" y1="438.1" x2="503.7" y2="398"/>
			<line id="XMLID_306_" class="st2" x1="572" y1="438.1" x2="503.7" y2="398"/>
			<line id="XMLID_305_" class="st2" x1="571.1" y1="438.1" x2="639.4" y2="398"/>
			<line id="XMLID_304_" class="st2" x1="638.2" y1="436.9" x2="571.1" y2="398"/>
			<line id="XMLID_303_" class="st1" x1="571.4" y1="399.3" x2="571.4" y2="438.3"/>
			<line id="XMLID_302_" class="st1" x1="637.4" y1="399.3" x2="637.4" y2="438.3"/>
		</g>
	</g>
	<line id="XMLID_299_" class="st1" x1="435.4" y1="379.3" x2="435.4" y2="496.3"/>
	<line id="XMLID_298_" class="st2" x1="463.6" y1="206.9" x2="592.9" y2="138.2"/>
	<polyline id="XMLID_297_" class="st2" points="208.1,252.2 208.1,381.8 337.9,381.8 337.9,397.3 	"/>
	<circle id="XMLID_296_" class="st2" cx="199.3" cy="40.6" r="5"/>
	<polyline id="XMLID_295_" class="st2" points="7.3,180.2 306.1,180.2 306.1,216.8 292.3,216.8 	"/>
	<line id="XMLID_294_" class="st2" x1="613.9" y1="196.3" x2="613.9" y2="227.3"/>
	<line id="XMLID_293_" class="st1" x1="433.3" y1="144.2" x2="433.3" y2="14.1"/>
	<line id="XMLID_292_" class="st2" x1="542.9" y1="45.6" x2="511.5" y2="14.1"/>
</g>
<g id="XMLID_288_">
	<path id="XMLID_290_" class="st5" d="M353.8,576.1c-1.2,0-1.2,0.7-2.4,0.7c-12.5,0-24.1-5.1-32.3-13.3
		c-8.2-8.2-12.5-19.8-12.5-32.3c0-1.2,0-1.2,0-2.4c0-12.5,4.7-23.7,12.9-31.9c8.2-8.2,19.4-13.7,31.9-13.7c1.2,0,1.2,0.7,2.4,0.7
		c12.5,0,24,4.5,32.2,12.7c8.2,8.2,12.8,19.7,12.8,32.2c0,1.2,0.2,1.2,0.2,2.4c0,12.5-5.2,23.6-13.4,31.8S366.3,576.1,353.8,576.1z"
		/>
</g>
<path id="XMLID_287_" class="st6" d="M352.6,567.7L352.6,567.7c-20.9,0-37.8-16.9-37.8-37.8v0c0-20.9,16.9-37.8,37.8-37.8h0
	c20.9,0,37.8,16.9,37.8,37.8v0C390.3,550.8,373.4,567.7,352.6,567.7z"/>
<path id="XMLID_286_" class="st7" d="M350.4,242.7v-30c0-18,14.6-32.5,32.5-32.5h34.5c18,0,32.5-14.6,32.5-32.5v0
	c0-18,14.6-32.5,32.5-32.5h123.2c18,0,32.5,14.6,32.5,32.5v104.6"/>
<rect id="XMLID_285_" x="627.8" y="249.1" class="st8" width="23" height="10.3"/>
<rect id="XMLID_284_" x="633.6" y="259.5" class="st5" width="11.5" height="5.1"/>
<g id="XMLID_281_">
	<path id="XMLID_283_" class="st5" d="M139.4,375.1c0,0,0-0.9,0-0.9c-12.8,0-24.3-4.9-32.7-13.3c-8.4-8.4-13.4-19.8-13.4-32.7
		c0,0-0.6,0-0.6,0c0-12.8,5.4-24.4,13.8-32.8s20-13.4,32.8-13.4c0,0,0-0.6,0-0.6c12.8,0,24.3,5.7,32.7,14.1
		c8.4,8.4,13.7,19.9,13.7,32.7c0,0,0.4,0,0.4,0c0,12.8-5.8,24.3-14.2,32.7C163.6,369.3,152.2,375.1,139.4,375.1z"/>
</g>
<path id="XMLID_280_" class="st6" d="M139.4,366L139.4,366c-20.9,0-37.8-16.9-37.8-37.8v0c0-20.9,16.9-37.8,37.8-37.8h0
	c20.9,0,37.8,16.9,37.8,37.8v0C177.1,349.1,160.2,366,139.4,366z"/>
<g id="XMLID_277_">
	<path id="XMLID_279_" class="st5" d="M568.1,373.8c-1.2,0-1.2-0.7-2.4-0.7c-12.5,0-23.8-4.6-32-12.8c-8.2-8.2-13.7-19.5-13.7-32
		c0-1.2,0.6-1.2,0.6-2.4c0-12.5,4.9-23.8,13.1-32c8.2-8.2,19.5-12.9,32-12.9c1.2,0,1.2-0.9,2.4-0.9c12.5,0,23.7,5.7,31.9,13.9
		c8.2,8.2,13.3,19.4,13.3,31.9c0,1.2,0.2,1.2,0.2,2.4c0,12.5-5.5,23.6-13.7,31.8C591.7,368.2,580.6,373.8,568.1,373.8z"/>
</g>
<path id="XMLID_276_" class="st6" d="M566.9,364.8L566.9,364.8c-20.9,0-37.8-16.9-37.8-37.8v0c0-20.9,16.9-37.8,37.8-37.8h0
	c20.9,0,37.8,16.9,37.8,37.8v0C604.6,347.9,587.7,364.8,566.9,364.8z"/>
<g id="XMLID_273_">
	<path id="XMLID_275_" class="st5" d="M353.8,170.5c-1.2,0-1.2-0.3-2.4-0.3c-12.5,0-23.9-4.6-32.1-12.8c-8.2-8.2-13-19.6-13-32.1
		c0-1.2-0.4-1.2-0.4-2.4c0-12.5,5-24.2,13.2-32.3c8.2-8.2,19.8-13.4,32.3-13.4c1.2,0,1.2,0.3,2.4,0.3c12.5,0,23.8,5.2,32,13.4
		s13.1,19.5,13.1,32c0,1.2,0,1.2,0,2.4c0,12.5-4.7,24.1-12.8,32.3C377.9,165.8,366.3,170.5,353.8,170.5z"/>
</g>
<path id="XMLID_272_" class="st6" d="M352.6,161.9L352.6,161.9c-20.9,0-37.8-16.9-37.8-37.8v0c0-20.9,16.9-37.8,37.8-37.8h0
	c20.9,0,37.8,16.9,37.8,37.8v0C390.3,145,373.4,161.9,352.6,161.9z"/>
<g id="XMLID_253_">
	<path id="XMLID_271_" class="st8" d="M428.5,246.9h-32.2c-2,0-3.7,1.6-3.7,3.7v13h39.5v-13C432.1,248.5,430.5,246.9,428.5,246.9z"
		/>
	<rect id="XMLID_270_" x="392.6" y="255.7" class="st9" width="39.5" height="3.6"/>
	<path id="XMLID_269_" class="st8" d="M307,246.9h-32.2c-2,0-3.7,1.6-3.7,3.7v13h39.5v-13C310.7,248.5,309.1,246.9,307,246.9z"/>
	<rect id="XMLID_268_" x="271.2" y="255.7" class="st9" width="39.5" height="3.6"/>
	<path id="XMLID_267_" class="st5" d="M426.4,258.2c-0.1,0-0.2,0-0.3,0v0H276.7c-29.2,0-54.2,22.7-55.2,52
		c-1.1,30.7,23.5,55.9,53.9,55.9c12.6,0,24.3-4.4,33.4-11.6c9.5-7.6,21.2-11.8,33.4-11.8H359c12,0,24,3.7,33.3,11.3
		c9.3,7.6,21.1,12.1,34,12.1c28.4,0,52.4-22.7,53.9-51C481.9,283.9,457.1,258.2,426.4,258.2z"/>
	<rect id="XMLID_266_" x="270" y="290.5" class="st10" width="10.8" height="43.1"/>
	<rect id="XMLID_265_" x="253.8" y="306.7" class="st10" width="43.1" height="10.8"/>
	<circle id="XMLID_264_" class="st10" cx="426.4" cy="312.1" r="36"/>
	<g id="XMLID_259_">
		<circle id="XMLID_263_" class="st5" cx="425.3" cy="295.7" r="8.1"/>
		<circle id="XMLID_262_" class="st5" cx="425.3" cy="328.1" r="8.1"/>
		<circle id="XMLID_261_" class="st5" cx="411.8" cy="311.9" r="8.1"/>
		<circle id="XMLID_260_" class="st5" cx="441.4" cy="311.9" r="8.1"/>
	</g>
	<polygon id="XMLID_258_" class="st8" points="356.1,242.7 344.8,242.7 342,258.2 358.9,258.2 	"/>
	<polygon id="XMLID_257_" class="st9" points="358.2,254.4 342.6,254.4 342,258.2 358.9,258.2 	"/>
	<path id="XMLID_256_" class="st8" d="M373.7,323.7c-0.8-3.7-1.3-7.6-1.3-11.5c0-12.8,4.5-24.5,11.9-33.7h-66.9
		c7.4,9.2,11.9,20.9,11.9,33.7c0,4-0.5,7.8-1.3,11.5H373.7z"/>
	<rect id="XMLID_255_" x="343.7" y="305.6" class="st10" width="16.2" height="5.4"/>
	<rect id="XMLID_254_" x="343.7" y="292.1" class="st10" width="16.2" height="5.4"/>
</g>
<g id="XMLID_243_">
	<path id="XMLID_252_" class="st11" d="M129.5,337.9c0-5.5,4.4-9.9,9.9-9.9c5.5,0,9.9,4.4,9.9,9.9H129.5z"/>
	<circle id="XMLID_251_" class="st12" cx="139.5" cy="320.6" r="4.5"/>
	<g id="XMLID_248_">
		<path id="XMLID_250_" class="st11" d="M115,337.9c0-5.5,4.4-9.9,9.9-9.9c5.5,0,9.9,4.4,9.9,9.9H115z"/>
		<circle id="XMLID_249_" class="st11" cx="125" cy="320.6" r="4.5"/>
	</g>
	<g id="XMLID_245_">
		<path id="XMLID_247_" class="st11" d="M144,337.9c0-5.5,4.4-9.9,9.9-9.9c5.5,0,9.9,4.4,9.9,9.9H144z"/>
		<circle id="XMLID_246_" class="st11" cx="154" cy="320.6" r="4.5"/>
	</g>
	<path id="XMLID_244_" class="st12" d="M129.5,337.9c0-5.5,4.4-9.9,9.9-9.9c5.5,0,9.9,4.4,9.9,9.9H129.5z"/>
</g>
<g id="XMLID_232_">
	<path id="XMLID_242_" class="st13" d="M354.5,130.8h-2.7c-4.6,0-8.4-3.8-8.4-8.4v-16.8h19.5v16.8
		C362.9,127,359.2,130.8,354.5,130.8z"/>
	<polyline id="XMLID_241_" class="st14" points="347,143.8 347,138 359.4,138 359.4,143.8 	"/>
	<path id="XMLID_239_" class="st15" d="M341.5,147.3"/>
	<line id="XMLID_238_" class="st16" x1="364.9" y1="143.8" x2="341.5" y2="143.8"/>
	<path id="XMLID_237_" class="st15" d="M364.9,147.3"/>
	<g id="XMLID_235_">
		<line id="XMLID_236_" class="st17" x1="352.6" y1="130.8" x2="352.6" y2="137.9"/>
	</g>
	<path id="XMLID_234_" class="st16" d="M343.9,123.1L343.9,123.1c-5.7,0-10.4-4.6-10.4-10.4v-2.6h9.9"/>
	<path id="XMLID_233_" class="st16" d="M362.7,123.1L362.7,123.1c5.7,0,10.4-4.6,10.4-10.4v-2.6h-9.9"/>
</g>
<g id="XMLID_82_">
	<g id="XMLID_226_">
		<line id="XMLID_231_" class="st18" x1="349.9" y1="516.1" x2="354.5" y2="516.1"/>
		<line id="XMLID_230_" class="st18" x1="349.9" y1="542.5" x2="362.2" y2="542.5"/>
		<line id="XMLID_229_" class="st18" x1="365.9" y1="542.5" x2="365.7" y2="542.5"/>
		<line id="XMLID_228_" class="st18" x1="349.9" y1="528.9" x2="366.1" y2="528.9"/>
		<line id="XMLID_227_" class="st18" x1="360.1" y1="516.1" x2="367.5" y2="516.1"/>
	</g>
	<path id="XMLID_225_" class="st19" d="M344.9,549.8"/>
	<path id="XMLID_224_" class="st11" d="M371.3,543"/>
	<line id="XMLID_223_" class="st11" x1="334.9" y1="510.3" x2="371.9" y2="510.3"/>
	<path id="XMLID_222_" class="st11" d="M334.9,543"/>
	<line id="XMLID_221_" class="st11" x1="344" y1="548.6" x2="344.3" y2="511.6"/>
	<line id="XMLID_220_" class="st11" x1="334.9" y1="550.3" x2="371.9" y2="550.3"/>
	<line id="XMLID_219_" class="st11" x1="334.9" y1="537.3" x2="371.9" y2="537.3"/>
	<line id="XMLID_218_" class="st11" x1="334.9" y1="523.3" x2="371.9" y2="523.3"/>
	<path id="XMLID_217_" class="st11" d="M344.6,549.8"/>
	<g id="XMLID_214_">
		<path id="XMLID_216_" class="st10" d="M336.8,518.9c0-1.2,1-2.2,2.2-2.2c1.2,0,2.2,1,2.2,2.2H336.8z"/>
		<circle id="XMLID_215_" class="st10" cx="339" cy="515.1" r="1"/>
	</g>
	<g id="XMLID_211_">
		<path id="XMLID_213_" class="st10" d="M336.8,531.7c0-1.2,1-2.2,2.2-2.2c1.2,0,2.2,1,2.2,2.2H336.8z"/>
		<circle id="XMLID_212_" class="st10" cx="339" cy="527.9" r="1"/>
	</g>
	<g id="XMLID_83_">
		<path id="XMLID_210_" class="st10" d="M336.8,545c0-1.2,1-2.2,2.2-2.2c1.2,0,2.2,1,2.2,2.2H336.8z"/>
		<circle id="XMLID_84_" class="st10" cx="339" cy="541.2" r="1"/>
	</g>
</g>
<g id="XMLID_77_">
	<rect id="XMLID_80_" x="555.9" y="312.2" class="st10" width="21.5" height="28.6"/>
	<g id="XMLID_365_">
		<path id="XMLID_371_" class="st11" d="M573.4,349.5h-13.5c-2.2,0-4-1.8-4-4v-36.1c0-2.2,1.8-4,4-4h13.5c2.2,0,4,1.8,4,4v36.1
			C577.4,347.7,575.6,349.5,573.4,349.5z"/>
		<line id="XMLID_79_" class="st11" x1="555.9" y1="312.2" x2="577.4" y2="312.2"/>
		<line id="XMLID_78_" class="st11" x1="577.4" y1="340.8" x2="555.9" y2="340.8"/>
		<circle id="XMLID_369_" class="st10" cx="566.6" cy="344.9" r="1.7"/>
	</g>
	<text id="XMLID_240_" transform="matrix(1 0 0 1 563.3916 334.3608)" class="st20 st21 st22">!</text>
</g>
<line id="XMLID_75_" class="st23" x1="565.6" y1="102.1" x2="551.2" y2="116.5"/>
</svg>
